<?xml version="1.0" encoding="UTF-8"?>
<svg width="78px" height="84px" viewBox="0 0 78 84" version="1.1" xmlns="http://www.w3.org/2000/svg" xmlns:xlink="http://www.w3.org/1999/xlink">
    <!-- Generator: Sketch 47 (45396) - http://www.bohemiancoding.com/sketch -->
    <title>courses_enrolled</title>
    <desc>Created with Sketch.</desc>
    <defs></defs>
    <g id="Symbols" stroke="none" stroke-width="1" fill="none" fill-rule="evenodd">
        <g id="courses_enrolled" fill-rule="nonzero" fill="#343434">
            <path d="M75,42 L60,42 L60,39 C60,30.584 55.038,23.345 47.89,19.995 L47.89,19.995 C49.803,17.869 51,15.085 51,12 C51,5.372 45.628,0 39,0 C32.373,0 27,5.372 27,12 C27,15.085 28.197,17.869 30.11,19.995 C22.962,23.345 18,30.584 18,39 L18,42 L3,42 C1.343,42 0,43.343 0,45 L0,51 C0,52.657 1.343,54 3,54 L9,54 L9,82.5 C9,83.328 9.672,84 10.5,84 C11.328,84 12,83.328 12,82.5 L12,54 L66,54 L66,82.5 C66,83.328 66.672,84 67.5,84 C68.328,84 69,83.328 69,82.5 L69,54 L75,54 C76.657,54 78,52.657 78,51 L78,45 C78,43.343 76.657,42 75,42 Z M30,12 C30,7.037 34.037,3 39,3 C43.963,3 48,7.037 48,12 C48,16.963 43.963,21 39,21 C34.037,21 30,16.963 30,12 Z M21,39 C21,31.299 25.871,24.73 32.686,22.165 L32.685,22.165 C34.524,23.309 36.675,24 39,24 C41.325,24 43.476,23.309 45.314,22.165 L45.314,22.165 C52.129,24.731 57,31.299 57,39 L57,42 L21,42 L21,39 Z M75,51 L3,51 L3,45 C26.364,45 47.274,45 75,45 L75,51 Z" id="Shape"></path>
            <path d="M27,57 C22.029,57 18,61.029 18,66 L18,81 C18,82.657 19.343,84 21,84 L33,84 C34.657,84 36,82.657 36,81 L36,66 C36,61.029 31.971,57 27,57 Z M33,81 L21,81 L21,66 C21,62.692 23.692,60 27,60 C30.309,60 33,62.692 33,66 L33,81 Z" id="Shape"></path>
            <path d="M51,57 C46.029,57 42,61.029 42,66 L42,81 C42,82.657 43.343,84 45,84 L57,84 C58.657,84 60,82.657 60,81 L60,66 C60,61.029 55.971,57 51,57 Z M57,81 L45,81 L45,66 C45,62.692 47.692,60 51,60 C54.309,60 57,62.692 57,66 L57,81 Z" id="Shape"></path>
        </g>
    </g>
</svg>